<?xml version="1.0" encoding="utf-8"?>
<!-- Uploaded to SVGRepo https://www.svgrepo.com -->
<svg version="1.2" baseProfile="tiny" id="Layer_1" xmlns="http://www.w3.org/2000/svg" xmlns:xlink="http://www.w3.org/1999/xlink"
	 x="0px" y="0px" viewBox="-351 153 256 256" xml:space="preserve">
<g>
	<path d="M-312.5,344.7c-18.3,0-33.1-14.9-33.1-33.1c0-18.2,14.9-33.1,33.2-33.1c0.1,0,0.3,0,0.4,0c2.6-22.2,21.6-39.6,44.5-39.6
		c2.6,0,5.2,0.2,8,0.8c6.6-27.9,31.8-48.3,60.9-48.3c34.6,0,62.7,28.1,62.7,62.7c0,0.1,0,0.3,0,0.4c22.6,2.2,40.4,21.4,40.4,44.5
		c0,24.7-20,44.7-44.7,44.7C-141.8,343.8-310.8,344.7-312.5,344.7z M-308.3,287.8c-12.1,0-21.9,9.8-21.9,21.8s9.8,21.8,21.8,21.8
		c6.7,0,163.3-0.8,164.5-0.8c18.1,0,32.8-14.8,32.8-32.8s-14.7-32.8-32.7-32.8c-0.5,0.1-0.8,0.1-1.2,0.1h-5.5l0.6-5.5
		c0.2-1.6,0.2-3.2,0.2-4.8c0-27.5-22.4-49.9-49.9-49.9c-24.7,0-46,18.5-49.4,43l-0.8,5.8l-5.6-1.8c-3.7-1.2-6.9-1.7-10.1-1.7
		c-17.8-0.1-32.5,14.3-32.7,32.3c0.1,0.3,0.1,0.6,0.1,1v5.8l-5.8-1.1C-305.6,287.9-306.9,287.8-308.3,287.8z"/>
</g>
</svg>
